:SAMPLES-PER-SECOND 30
:FULLY-SPECIFIED
:DEGREES
344
root  6.34084 38.0568 10.6843 -179.773 -7.37057 178.555
RightUpLeg  -6.16223 -7.62047 -23.5742
RightLeg  20.2205 -17.1354 -7.03013
RightFoot  6.99349 -3.1295 19.5246
RightToes  -5.8209e-011 0 -3.6325e-017
Spine  14.1722 0.62699 6.79375
Spine1  17.3383 1.85839 -1.7979
HEad  -17.9492 -8.27536 -2.42352
LeftShoulder1  1.54109 -3.18027 -16.3332
LeftArm  16.8854 5.59811 -55.8655
LeftForeArm  55.7235 -78.6546 -81.7041
LeftHand  -0.924556 1.16198 25.2298
RightShoulder  0.927605 0.905352 14.2196
RightArm  21.5116 1.7936 61.6223
RightForeArm  84.1274 76.3421 121.685
RightHand  -0.640707 0.681792 -12.3298
LeftUpLeg  -11.8494 7.48852 12.8184
LeftLeg  23.0502 2.24993 1.39378
LeftFoot  -8.37077 0.461629 -15.8072
LeftToes  -3.91115e-011 -2.2622e-010 9.51032e-012
345
root  5.79836 38.3164 10.7506 -179.229 -5.91589 178.377
RightUpLeg  -8.41918 -12.9009 -22.0221
RightLeg  23.7364 -13.7693 -6.73066
RightFoot  3.64833 -2.50373 19.0804
RightToes  -5.8209e-011 0 -3.6325e-017
Spine  13.7511 0.0543853 5.73089
Spine1  16.7581 1.17022 -2.00805
HEad  -17.5948 -6.65172 -2.04012
LeftShoulder1  1.55596 -3.52518 -15.3163
LeftArm  16.7738 4.61764 -56.6355
LeftForeArm  56.5318 -78.6213 -84.9632
LeftHand  -1.02137 0.931146 26.3301
RightShoulder  0.896971 0.855492 13.7114
RightArm  20.5247 3.49337 62.9595
RightForeArm  82.2901 75.9183 123.532
RightHand  -0.557533 0.00541006 -12.0694
LeftUpLeg  -10.924 9.28742 11.756
LeftLeg  20.9594 2.79539 1.51119
LeftFoot  -7.7885 0.536922 -15.7334
LeftToes  -3.91115e-011 -2.2622e-010 9.51032e-012
346
root  5.40183 38.5101 10.807 -178.493 -4.57645 177.916
RightUpLeg  -10.8073 -17.3968 -20.0917
RightLeg  28.0761 -12.1569 -7.18646
RightFoot  2.44123 -2.34452 19.3612
RightToes  -5.8209e-011 0 -3.6325e-017
Spine  14.2743 -0.576643 5.1079
Spine1  14.4884 0.807754 -3.09951
HEad  -16.9546 -5.22605 -1.14599
LeftShoulder1  1.45015 -3.31472 -14.365
LeftArm  17.5028 4.31674 -56.2661
LeftForeArm  70.6528 -78.5194 -99.0514
LeftHand  -1.32413 0.181376 29.1476
RightShoulder  0.867631 0.970096 12.402
RightArm  20.0796 4.63957 65.1873
RightForeArm  81.0694 75.2631 126.441
RightHand  -0.64374 -0.0334033 -13.9095
LeftUpLeg  -10.9228 10.9926 10.5566
LeftLeg  20.2327 1.92756 1.04135
LeftFoot  -7.22363 0.623782 -16.0579
LeftToes  -3.91115e-011 -2.2622e-010 9.51032e-012
347
root  5.22222 38.5242 10.914 -178.473 -3.07925 178.002
RightUpLeg  -12.457 -21.8816 -17.2942
RightLeg  32.7186 -13.5663 -9.47539
RightFoot  2.83597 -2.51806 20.2045
RightToes  -5.8209e-011 0 -3.6325e-017
Spine  16.5268 -0.920699 4.65226
Spine1  11.0893 0.806054 -4.31043
HEad  -16.5586 -3.91739 0.452805
LeftShoulder1  1.36239 -3.15042 -13.5005
LeftArm  19.1205 3.14581 -54.8475
LeftForeArm  86.9445 -77.7464 -113.649
LeftHand  -1.63062 -0.426779 32.0593
RightShoulder  0.814053 1.04888 10.6977
RightArm  20.6381 6.72815 67.7928
RightForeArm  83.809 74.434 130.319
RightHand  -0.943153 1.00113 -17.1478
LeftUpLeg  -12.1637 10.878 10.8189
LeftLeg  23.2802 0.508055 0.597003
LeftFoot  -6.76444 0.745259 -17.4799
LeftToes  -3.91115e-011 -2.2622e-010 9.51032e-012
348
root  5.15902 38.2118 11.09 -178.184 -0.142334 178.019
RightUpLeg  -15.8076 -26.0413 -14.2205
RightLeg  38.8104 -14.0499 -12.0504
RightFoot  1.45666 -2.5205 22.3645
RightToes  -5.8209e-011 0 -3.6325e-017
Spine  18.4075 -0.212067 3.55932
Spine1  7.99905 1.69257 -5.30408
HEad  -16.4701 -3.08423 2.47296
LeftShoulder1  1.40272 -3.82443 -12.055
LeftArm  20.3668 0.16051 -53.613
LeftForeArm  90.9193 -77.1873 -118.617
LeftHand  -1.76442 -0.516303 34.0379
RightShoulder  0.700461 0.715681 9.25937
RightArm  21.0695 10.3965 70.2896
RightForeArm  87.768 73.7526 133.38
RightHand  -1.27708 2.22684 -19.5483
LeftUpLeg  -14.4256 8.37277 12.1526
LeftLeg  28.2478 1.36235 1.16225
LeftFoot  -6.69685 0.845393 -19.7009
LeftToes  -3.91115e-011 -2.2622e-010 9.51032e-012
349
root  5.09288 37.4878 11.304 -177.47 5.0267 177.643
RightUpLeg  -21.9319 -27.7031 -11.4135
RightLeg  47.0085 -10.6666 -12.2379
RightFoot  -2.02911 -2.07816 24.9659
RightToes  -5.8209e-011 0 -3.6325e-017
Spine  19.0943 1.47179 1.43193
Spine1  5.48302 3.30384 -6.35823
HEad  -16.7688 -2.17165 4.00177
LeftShoulder1  1.48532 -4.96511 -10.2496
LeftArm  20.2028 -3.40081 -53.4249
LeftForeArm  80.7858 -77.6074 -112.859
LeftHand  -1.74404 -0.362173 34.5125
RightShoulder  0.561672 0.101024 8.13828
RightArm  20.2573 14.3649 72.7734
RightForeArm  83.9165 74.4308 130.345
RightHand  -1.39994 2.82768 -19.8382
LeftUpLeg  -15.908 7.13946 13.7348
LeftLeg  32.4557 3.02782 2.43084
LeftFoot  -8.97736 0.506313 -22.0046
LeftToes  -3.91115e-011 -2.2622e-010 9.51032e-012
350
root  5.07149 36.4922 11.5278 -178.622 10.0143 178.295
RightUpLeg  -26.1391 -26.5426 -9.32663
RightLeg  55.6456 -6.09297 -9.88238
RightFoot  -4.64304 -1.60493 26.3767
RightToes  -5.8209e-011 0 -3.6325e-017
Spine  20.9584 2.55938 -0.647016
Spine1  3.58575 4.13261 -7.34887
HEad  -18.0563 -0.189191 4.70181
LeftShoulder1  1.52481 -5.63196 -9.30396
LeftArm  19.4271 -7.31747 -54.1544
LeftForeArm  53.5197 -78.3631 -88.0492
LeftHand  -1.52796 0.0312334 32.4655
RightShoulder  0.521084 -0.0428179 7.56316
RightArm  18.1777 16.648 74.5427
RightForeArm  63.9843 76.8154 113.685
RightHand  -1.29285 2.69253 -18.6361
LeftUpLeg  -14.6532 7.68518 16.5304
LeftLeg  36.258 3.20509 2.88695
LeftFoot  -14.5509 -0.601727 -24.1454
LeftToes  -3.91115e-011 -2.2622e-010 9.51032e-012
351
root  5.17692 35.4038 11.8263 179.222 13.2411 178.683
RightUpLeg  -29.0612 -23.4424 -9.10551
RightLeg  64.2137 -3.21951 -7.90506
RightFoot  -5.42654 -1.40863 26.1171
RightToes  -5.8209e-011 0 -3.6325e-017
Spine  23.0755 3.39061 -4.51875
Spine1  3.33501 3.77987 -6.29238
HEad  -20.5087 2.38093 5.2462
LeftShoulder1  1.60964 -5.93247 -9.71742
LeftArm  19.903 -13.8184 -55.7574
LeftForeArm  13.7445 -73.7059 -45.3511
LeftHand  -1.18438 0.612463 28.4921
RightShoulder  0.673737 0.692258 8.60538
RightArm  14.0109 16.2086 73.649
RightForeArm  28.004 77.6747 79.8685
RightHand  -1.10677 2.18917 -17.0532
LeftUpLeg  -13.3634 9.01287 18.6983
LeftLeg  41.1262 1.81037 2.09217
LeftFoot  -20.7572 -2.01587 -25.6337
LeftToes  -3.91115e-011 -2.2622e-010 9.51032e-012
352
root  5.4091 34.461 12.1295 177.168 13.9045 179.304
RightUpLeg  -31.1173 -20.0338 -9.8028
RightLeg  70.9262 -2.24609 -8.16459
RightFoot  -5.99398 -1.20633 24.5438
RightToes  -5.8209e-011 0 -3.6325e-017
Spine  24.7146 3.85666 -7.90567
Spine1  4.97294 2.80782 -3.75687
HEad  -23.0801 3.86504 5.84054
LeftShoulder1  1.81582 -6.56658 -10.7977
LeftArm  22.1042 -22.7001 -58.7671
LeftForeArm  -5.11604 -61.4905 -21.6962
LeftHand  -1.06907 0.622323 25.8932
RightShoulder  0.990145 1.72921 11.8309
RightArm  6.03099 12.9476 69.6517
RightForeArm  0.684352 74.5123 50.3856
RightHand  -1.03411 2.09178 -16.1638
LeftUpLeg  -13.6275 8.51657 20.7238
LeftLeg  46.7062 0.572186 1.11978
LeftFoot  -24.6831 -3.01045 -26.5708
LeftToes  -3.91115e-011 -2.2622e-010 9.51032e-012
353
root  5.77099 33.7568 12.2728 176.095 13.2928 -179.278
RightUpLeg  -32.566 -16.7493 -10.8574
RightLeg  74.4399 -2.23323 -10.2207
RightFoot  -7.59725 -0.801345 22.6233
RightToes  -5.8209e-011 0 -3.6325e-017
Spine  25.7761 3.83122 -8.77527
Spine1  6.79554 1.9774 -1.47228
HEad  -24.725 3.68393 5.60599
LeftShoulder1  2.03759 -7.11873 -12.086
LeftArm  23.0661 -29.1865 -63.0579
LeftForeArm  -9.13287 -52.1695 -14.9483
LeftHand  -1.22915 0.108558 26.7513
RightShoulder  1.31607 2.30785 16.0057
RightArm  -5.89568 7.24939 64.5493
RightForeArm  -10.0724 70.0699 35.8219
RightHand  -1.17661 2.82672 -16.7357
LeftUpLeg  -14.5202 6.34517 23.4054
LeftLeg  50.8095 0.0988002 0.615677
LeftFoot  -26.4344 -3.5965 -27.83
LeftToes  -3.91115e-011 -2.2622e-010 9.51032e-012
